<?xml version="1.0" encoding="UTF-8" standalone="no"?>
<!DOCTYPE svg PUBLIC "-//W3C//DTD SVG 1.1//EN" "http://www.w3.org/Graphics/SVG/1.1/DTD/svg11.dtd">
<svg width="100%" height="100%" viewBox="0 0 675 150" version="1.1" xmlns="http://www.w3.org/2000/svg" xmlns:xlink="http://www.w3.org/1999/xlink" xml:space="preserve" xmlns:serif="http://www.serif.com/" style="fill-rule:evenodd;clip-rule:evenodd;stroke-linejoin:round;stroke-miterlimit:2;">
    <g transform="matrix(1,0,0,1,0,-5.99962)">
        <g transform="matrix(0.759634,0,0,-0.759634,0,142.75)">
            <clipPath id="_clip1">
                <path d="M3.074,89.19C3.074,41.629 41.63,3.075 89.187,3.075C136.749,3.075 175.3,41.629 175.3,89.19C175.3,136.748 136.749,175.302 89.187,175.302C41.63,175.302 3.074,136.748 3.074,89.19"/>
            </clipPath>
            <g clip-path="url(#_clip1)">
                <path d="M3.074,89.19C3.074,41.629 41.63,3.075 89.187,3.075C136.749,3.075 175.3,41.629 175.3,89.19C175.3,136.748 136.749,175.302 89.187,175.302C41.63,175.302 3.074,136.748 3.074,89.19" style="fill:url(#_Radial2);fill-rule:nonzero;"/>
            </g>
        </g>
        <g transform="matrix(0.759634,0,0,-0.759634,0,142.75)">
            <g id="path1948" transform="matrix(1.02483,0,0,-1.02483,31.341,144.876)">
                <path d="M54.919,0.001C50.335,0.022 45.958,0.413 42.106,1.095C30.76,3.099 28.7,7.295 28.7,15.032L28.7,25.251L55.513,25.251L55.513,28.657L18.638,28.657C10.845,28.657 4.022,33.341 1.888,42.251C-0.574,52.464 -0.683,58.837 1.888,69.501C3.793,77.439 8.345,83.095 16.138,83.095L25.356,83.095L25.356,70.845C25.356,61.995 33.013,54.188 42.106,54.188L68.888,54.188C76.342,54.188 82.294,48.05 82.294,40.563L82.294,15.032C82.294,7.766 76.164,2.307 68.888,1.095C64.282,0.328 59.502,-0.02 54.919,0.001ZM40.419,8.22C43.188,8.22 45.45,10.518 45.45,13.345C45.45,16.161 43.188,18.438 40.419,18.438C37.639,18.438 35.388,16.161 35.388,13.345C35.388,10.518 37.639,8.22 40.419,8.22Z" style="fill:white;fill-rule:nonzero;"/>
            </g>
            <g id="path1950" transform="matrix(1.02483,0,0,-1.02483,31.341,144.876)">
                <path d="M85.638,28.657L85.638,40.563C85.638,49.794 77.812,57.563 68.888,57.563L42.106,57.563C34.77,57.563 28.7,63.842 28.7,71.188L28.7,96.72C28.7,103.986 35.019,108.26 42.106,110.345C50.594,112.84 58.733,113.291 68.888,110.345C75.638,108.39 82.294,104.457 82.294,96.72L82.294,86.501L55.513,86.501L55.513,83.095L95.7,83.095C103.493,83.095 106.396,77.659 109.106,69.501C111.906,61.102 111.787,53.025 109.106,42.251C107.181,34.493 103.502,28.657 95.7,28.657L85.638,28.657ZM70.575,93.313C73.355,93.313 75.606,95.591 75.606,98.407C75.606,101.234 73.355,103.532 70.575,103.532C67.805,103.532 65.544,101.234 65.544,98.407C65.544,95.591 67.805,93.313 70.575,93.313Z" style="fill:white;fill-rule:nonzero;"/>
            </g>
        </g>
        <g transform="matrix(0.759634,0,0,-0.759634,0,142.75)">
            <g transform="matrix(0.78078,0,0,-0.94498,538.252,89.1885)">
                <g transform="matrix(1,0,0,1,-458,-122)">
                    <path id="Shape" d="M29.643,228.256C25.426,228.473 22.645,228.203 22.417,227.554C22.214,226.974 22.475,222.225 22.997,217C23.519,211.775 23.959,199.4 23.975,189.5C23.99,179.6 23.068,160.25 21.925,146.5C20.764,132.536 19.771,111.425 19.674,98.677C19.508,76.958 19.596,75.783 21.486,74.394C22.578,73.591 26.256,72.075 29.658,71.024C33.061,69.973 39.355,68.388 43.645,67.502C47.935,66.616 55.957,65.889 61.472,65.887C68.807,65.885 73.287,66.439 78.153,67.952C82.994,69.457 86.241,71.31 90.069,74.752C93.301,77.657 96.33,81.61 97.916,84.992C100.295,90.063 100.5,91.571 100.5,104C100.5,116.14 100.213,118.376 97.652,126.188C96.085,130.967 92.757,138.374 90.255,142.648C87.618,147.152 82.698,153.388 78.551,157.482C74.081,161.894 68.709,165.956 64.233,168.308C60.293,170.379 53.791,172.906 49.784,173.925C42.5,175.778 42.5,175.778 43,183.639C43.275,187.963 43.5,199.358 43.5,208.962C43.5,226.423 43.5,226.423 40,227.163C38.075,227.57 33.415,228.062 29.643,228.256ZM831.643,228.256C827.426,228.473 824.645,228.203 824.417,227.554C824.214,226.974 824.475,222.225 824.997,217C825.519,211.775 825.959,199.4 825.974,189.5C825.99,179.6 825.072,160.25 823.933,146.5C822.79,132.704 821.781,111.272 821.681,98.679C821.509,76.957 821.596,75.787 823.486,74.396C824.578,73.592 828.256,72.075 831.658,71.024C835.061,69.973 841.355,68.388 845.645,67.502C849.935,66.616 857.957,65.889 863.472,65.887C870.807,65.885 875.287,66.439 880.153,67.952C884.994,69.457 888.241,71.31 892.069,74.752C895.301,77.657 898.33,81.61 899.916,84.992C902.295,90.063 902.5,91.571 902.5,104C902.5,116.14 902.213,118.376 899.652,126.188C898.085,130.967 894.757,138.374 892.255,142.648C889.618,147.152 884.698,153.388 880.551,157.482C876.081,161.894 870.709,165.956 866.233,168.308C862.293,170.379 855.791,172.906 851.784,173.925C844.5,175.778 844.5,175.778 845,183.639C845.275,187.963 845.5,199.358 845.5,208.962C845.5,226.423 845.5,226.423 842,227.163C840.075,227.57 835.415,228.062 831.643,228.256ZM227.5,83.5C225.95,97.45 225.5,110.5 225.5,121.5C225.5,138.802 225.758,142.169 227.413,146.461C228.507,149.297 231.291,153.376 233.913,155.985C236.436,158.494 242.235,162.484 246.8,164.85C255.1,169.153 255.1,169.153 252.399,173.827C250.913,176.397 248.804,179.78 247.714,181.344C246.205,183.506 245.104,184.094 243.115,183.799C241.677,183.585 238.037,182.08 235.026,180.455C232.015,178.83 227.065,175.016 224.026,171.98C220.987,168.944 217.218,163.82 215.652,160.593C214.086,157.366 211.836,150.85 210.652,146.113C208.827,138.809 208.5,134.612 208.5,118.5C208.5,108.05 208.725,96.125 209,92C209.5,84.5 209.5,84.5 204.5,84C199.934,83.543 199.473,83.261 199.184,80.75C199.01,79.238 198.56,78.001 198.184,78.001C197.808,78.002 196.073,82.164 194.33,87.251C192.586,92.338 186.847,106.557 181.575,118.848C176.304,131.14 169.463,148.015 166.374,156.348C163.285,164.682 159.194,175.55 157.282,180.5C155.37,185.45 151.965,192.65 149.715,196.5C147.466,200.35 143.347,205.914 140.562,208.865C137.778,211.815 133.55,215.64 131.166,217.365C128.782,219.089 126.253,220.634 125.546,220.798C124.839,220.962 121.969,218.004 119.167,214.225C116.365,210.446 113.793,206.625 113.452,205.734C112.982,204.511 114.258,203.392 118.665,201.163C121.874,199.539 126.571,196.383 129.103,194.15C131.834,191.741 135.229,187.19 137.453,182.958C139.646,178.784 141.025,174.911 140.778,173.618C140.546,172.404 138.089,168.505 135.319,164.955C132.549,161.405 128.186,154.9 125.624,150.5C123.061,146.1 119.171,137.916 116.978,132.313C114.784,126.709 111.466,116.809 109.604,110.312C107.742,103.816 105.182,93.828 103.914,88.117C101.61,77.734 101.61,77.734 103.846,75.924C105.076,74.928 108.609,73.168 111.697,72.012C115.02,70.769 117.678,70.278 118.211,70.811C118.705,71.305 119.546,74.787 120.078,78.549C120.611,82.31 121.917,89.554 122.98,94.647C124.044,99.739 126.29,108.631 127.973,114.407C129.655,120.183 132.784,129.197 134.925,134.44C137.066,139.682 140.558,147.207 142.685,151.161C144.812,155.115 147.048,158.516 147.652,158.717C148.282,158.927 150.886,152.979 153.747,144.792C156.494,136.931 161.546,122.4 164.972,112.5C168.399,102.6 173.382,87.975 176.046,80C180.801,65.767 180.942,65.502 183.732,65.624C185.295,65.693 189.397,66.889 192.847,68.282C199.12,70.816 199.12,70.816 200.015,68.462C200.775,66.462 201.706,66.062 206.205,65.804C211.5,65.5 211.5,65.5 212.133,59C212.481,55.425 212.819,48.843 212.883,44.372C212.961,38.948 213.443,35.877 214.332,35.14C215.064,34.532 219.227,33.178 223.582,32.132C227.937,31.086 231.871,30.571 232.324,30.989C232.777,31.407 232.423,37.992 231.536,45.624C230.649,53.256 230.053,60.625 230.212,62C230.499,64.494 230.53,64.501 243.5,65C256.5,65.5 256.5,65.5 256.174,71C255.994,74.025 255.517,77.85 255.112,79.5C254.377,82.5 254.377,82.5 240.939,83L227.5,83.5ZM576.815,182.572C574.396,183.075 573.679,182.458 569.581,176.349C567.079,172.62 565.362,169.27 565.766,168.906C566.17,168.542 570.008,167.739 574.296,167.121C578.583,166.504 585.558,165.286 589.796,164.416C594.033,163.546 600.2,161.941 603.5,160.849C606.8,159.758 611.203,157.754 613.284,156.396C615.364,155.038 617.81,152.369 618.719,150.464C620.227,147.301 620.234,146.715 618.806,143.72C617.946,141.916 615.5,139.236 613.371,137.764C611.242,136.293 606.575,133.792 603,132.208C599.425,130.623 592.9,128.084 588.5,126.567C584.1,125.049 577.716,122.492 574.314,120.883C570.911,119.275 565.905,116.202 563.19,114.056C560.266,111.745 557.336,108.26 556.005,105.511C554.292,101.973 553.87,99.702 554.23,95.959C554.52,92.944 555.731,89.493 557.37,87.017C558.838,84.799 561.942,81.595 564.269,79.897C566.596,78.199 571.612,75.235 575.415,73.309C579.219,71.384 586.896,68.313 592.476,66.485C598.056,64.657 604.243,62.857 606.225,62.486C609.787,61.817 609.884,61.89 614.399,68.62C616.912,72.367 618.638,75.726 618.234,76.085C617.83,76.444 613.393,77.471 608.372,78.366C603.352,79.262 595.702,81.166 591.372,82.598C587.043,84.03 581.475,86.363 579,87.783C576.525,89.203 573.263,91.598 571.75,93.105C569.975,94.874 569,96.906 569,98.834C569,100.923 569.898,102.578 571.984,104.333C573.626,105.715 577.338,107.718 580.234,108.785C583.13,109.852 591.35,112.646 598.5,114.994C605.65,117.341 614.772,120.84 618.771,122.768C622.77,124.697 627.845,128.025 630.05,130.164C632.255,132.304 634.825,135.663 635.762,137.628C636.767,139.736 637.451,143.52 637.429,146.851C637.403,150.645 636.678,153.868 635.219,156.664C634.025,158.954 631.082,162.438 628.679,164.407C626.276,166.376 620.978,169.518 616.905,171.389C612.832,173.259 606.125,175.725 602,176.867C597.875,178.009 591.125,179.634 587,180.479C582.875,181.323 578.292,182.266 576.815,182.572ZM308.128,181.888C304.482,181.827 299.25,181.361 296.5,180.854C293.75,180.346 288.751,179.031 285.391,177.931C282.032,176.831 277.307,174.667 274.891,173.123C272.476,171.578 268.465,168.106 265.977,165.407C263.49,162.708 260.232,157.753 258.737,154.396C257.242,151.039 255.496,144.929 254.857,140.819C254.182,136.48 253.934,128.974 254.266,122.923C254.642,116.042 255.732,109.459 257.472,103.549C258.922,98.626 261.967,91.024 264.24,86.655C266.514,82.286 270.797,76.093 273.759,72.893C276.967,69.428 281.374,65.986 284.659,64.378C288.714,62.394 291.804,61.657 296.336,61.59C299.726,61.541 304.456,62.094 306.848,62.819C309.239,63.545 313.115,65.909 315.462,68.072C317.902,70.321 320.826,74.466 322.29,77.753C323.698,80.914 325.447,86.407 326.175,89.959C326.904,93.511 327.5,100.711 327.5,105.959C327.5,115.5 327.5,115.5 321,118.703C317.425,120.465 310.9,122.892 306.5,124.098C302.1,125.304 292.65,127.258 285.5,128.44C272.5,130.59 272.5,130.59 272.164,135.045C271.979,137.495 272.341,141.827 272.968,144.67C273.757,148.249 275.329,151.228 278.074,154.347C280.849,157.499 283.611,159.401 287.27,160.676C291.401,162.117 295.546,162.5 307,162.5C321.5,162.5 321.5,162.5 321.16,165C320.973,166.375 319.92,170.2 318.819,173.5C317.719,176.8 316.354,180.063 315.787,180.75C315.131,181.544 312.337,181.959 308.128,181.888ZM354.867,178.576C351.549,178.858 347.973,178.473 345.5,177.569C343.3,176.765 339.874,174.295 337.887,172.079C335.89,169.853 333.665,165.916 332.912,163.276C332.163,160.649 331.539,155.569 331.525,151.987C331.511,148.405 332.047,142.855 332.715,139.654C333.383,136.454 335.082,131.316 336.492,128.237C337.901,125.159 340.616,120.734 342.525,118.404C344.434,116.074 348.69,112.369 351.982,110.171C355.274,107.973 360.968,105.175 364.636,103.955C368.303,102.734 374.723,101.458 378.902,101.118C386.5,100.5 386.5,100.5 386.839,96.5C387.025,94.3 386.669,90.198 386.047,87.385C385.418,84.535 383.94,81.373 382.709,80.243C381.494,79.128 379.15,77.932 377.5,77.585C375.85,77.238 372.025,77.421 369,77.992C365.975,78.563 360.273,80.559 356.33,82.428C352.386,84.297 348.898,85.565 348.58,85.246C348.261,84.927 348,82.323 348,79.458C348,76.594 348.292,72.788 348.65,71.001C349.198,68.262 350.178,67.34 354.9,65.126C359.831,62.814 361.754,62.5 371,62.5C378.729,62.5 382.735,62.977 386.179,64.306C388.752,65.299 392.878,67.654 395.347,69.539C398.28,71.778 400.819,74.967 402.667,78.733C405.106,83.702 405.482,85.608 405.385,92.5C405.323,96.9 404.509,105.225 403.576,111C402.643,116.775 401.457,125.469 400.941,130.319C400.214,137.151 400.334,140.755 401.475,146.319C402.285,150.269 404.48,156.511 406.352,160.191C409.755,166.881 409.755,166.881 407.628,168.761C406.457,169.795 403.579,172.116 401.232,173.919C398.884,175.722 396.141,177.412 395.135,177.675C393.634,178.067 393.018,177.108 391.699,172.327C390.816,169.122 389.575,163.462 388.944,159.75C388.312,156.038 387.503,153.003 387.147,153.008C386.791,153.012 385.41,154.924 384.079,157.258C382.747,159.591 379.19,164.088 376.175,167.252C373.159,170.415 368.339,174.155 365.463,175.562C362.587,176.969 357.819,178.325 354.867,178.576ZM757.867,178.576C754.576,178.855 751.013,178.478 748.655,177.601C746.541,176.814 743.684,175.12 742.308,173.835C740.932,172.551 738.917,169.767 737.831,167.649C736.745,165.531 735.441,161.216 734.932,158.06C734.36,154.505 734.37,149.467 734.96,144.817C735.483,140.689 736.859,134.778 738.018,131.681C739.177,128.584 742.066,123.414 744.439,120.191C746.972,116.749 751.272,112.648 754.86,110.252C758.219,108.009 763.968,105.175 767.636,103.955C771.303,102.734 777.723,101.458 781.902,101.118C789.5,100.5 789.5,100.5 789.826,96.5C790.005,94.3 789.865,90.59 789.515,88.255C789.165,85.92 787.784,82.708 786.445,81.117C785.02,79.423 782.582,77.957 780.562,77.578C778.599,77.209 774.286,77.586 770.556,78.451C766.95,79.287 761.29,81.339 757.978,83.011C752.764,85.643 751.874,85.836 751.342,84.449C751.004,83.567 751.021,79.618 751.381,75.673C751.829,70.761 752.554,68.112 753.681,67.27C754.586,66.594 757.391,65.244 759.913,64.27C763.256,62.98 767.348,62.5 775,62.5C784.348,62.5 786.14,62.8 791.332,65.232C794.54,66.735 798.672,69.472 800.513,71.313C802.355,73.155 804.905,76.815 806.181,79.448C808.139,83.49 808.476,85.654 808.343,93.367C808.256,98.39 807.244,108.247 806.093,115.272C804.942,122.296 804,132.098 804,137.053C804,143.508 804.589,147.827 806.075,152.282C807.217,155.702 809.236,160.371 810.563,162.657C812.976,166.814 812.976,166.814 809.412,169.943C807.452,171.664 804.065,174.252 801.884,175.695C799.212,177.464 797.59,177.99 796.908,177.308C796.352,176.752 795.248,173.868 794.453,170.899C793.659,167.929 792.511,162.688 791.902,159.25C791.293,155.813 790.474,153 790.083,153C789.691,153 788.643,154.526 787.754,156.39C786.865,158.255 783.368,162.74 779.984,166.358C776.255,170.344 771.743,173.957 768.532,175.528C765.618,176.954 760.819,178.325 757.867,178.576ZM420.5,175.5C420.5,102.377 420.26,96.187 418.583,87C417.528,81.225 416.628,75.44 416.583,74.144C416.509,72.05 417.276,71.588 423.5,69.976C430.025,68.287 430.588,68.277 431.793,69.832C432.505,70.749 433.358,72.625 433.69,74C434.022,75.375 434.673,77.532 435.138,78.793C435.965,81.038 436.113,80.978 442.073,76.019C445.422,73.232 450.263,69.892 452.831,68.597C455.399,67.302 459.396,65.926 461.713,65.539C464.534,65.069 467.772,65.373 471.509,66.46C475.775,67.7 478.32,69.311 482.296,73.291C485.158,76.156 487.992,78.903 488.594,79.397C489.296,79.972 491.623,78.755 495.094,75.995C498.067,73.632 503.398,70.333 506.941,68.665C510.61,66.938 515.673,65.443 518.708,65.191C521.637,64.948 526.032,65.309 528.475,65.993C530.918,66.677 534.716,68.777 536.916,70.66C539.159,72.58 542.255,76.811 543.964,80.292C545.641,83.706 547.695,89.65 548.528,93.5C549.361,97.35 550.295,106.8 550.604,114.5C550.942,122.917 550.544,137.841 549.607,151.926C548.75,164.81 547.611,175.789 547.076,176.324C546.488,176.912 542.825,177.023 537.808,176.604C533.246,176.224 529.079,175.479 528.549,174.949C527.93,174.33 528.206,165.121 529.318,149.242C530.271,135.634 531.04,118.005 531.026,110.066C531.007,99.75 530.528,93.95 529.347,89.739C528.334,86.128 526.562,82.716 524.77,80.924C522.447,78.601 520.964,78 517.557,78C514.662,78 511.032,79.122 506.384,81.454C502.598,83.354 497.979,86.185 496.121,87.744C492.742,90.579 492.742,90.579 494.418,102.039C495.355,108.449 496.361,123.675 496.701,136.587C497.035,149.285 496.902,163.46 496.404,168.087C495.5,176.5 495.5,176.5 485.5,176.5L475.5,176.5L475.5,138C475.5,103.194 475.316,98.828 473.587,92.5C472.145,87.219 470.762,84.579 467.955,81.75C464.753,78.522 463.608,78 459.731,78C456.298,78 454.086,78.773 450.435,81.25C447.801,83.038 443.864,86.623 441.687,89.217C437.729,93.934 437.729,93.934 438.957,116.217C439.633,128.473 440.032,147.05 439.843,157.5C439.515,175.685 439.414,176.504 437.5,176.587C436.4,176.634 432.125,176.409 428,176.087L420.5,175.5ZM653.267,176.598C645.956,177.208 644.971,177.088 644.368,175.518C643.996,174.547 644,164.695 644.378,153.626C644.756,142.557 645.485,129 645.997,123.5C646.51,118 646.929,106.975 646.929,99C646.93,90.862 646.306,80.994 645.507,76.509C644.724,72.113 644.402,68.205 644.791,67.823C645.181,67.441 649.325,66.987 654,66.814C662.5,66.5 662.5,66.5 662.793,74.315C663.008,80.043 663.427,82.046 664.363,81.815C665.066,81.642 668.309,79.37 671.57,76.767C674.832,74.163 680.324,70.642 683.775,68.942C687.31,67.2 692.428,65.605 695.499,65.288C698.642,64.964 702.846,65.257 705.432,65.981C707.898,66.672 711.716,68.777 713.916,70.66C716.166,72.586 719.267,76.828 721.003,80.354C722.7,83.802 724.815,90.307 725.702,94.809C727.079,101.801 727.204,107.187 726.555,131.747C726.138,147.561 725.504,164.1 725.148,168.5C724.5,176.5 724.5,176.5 715.5,176.5C706.5,176.5 706.5,176.5 706.528,170.5C706.543,167.2 707.207,155.95 708.003,145.5C708.799,135.05 709.462,121.325 709.475,115C709.489,108.675 708.935,100.215 708.245,96.199C707.554,92.184 706.086,87.128 704.982,84.964C703.878,82.8 701.848,80.291 700.471,79.389C698.689,78.222 696.562,77.884 693.092,78.217C690.41,78.475 686.281,79.694 683.916,80.927C681.551,82.159 677.79,84.459 675.558,86.036C673.326,87.614 669.828,90.388 667.784,92.202C664.067,95.5 664.067,95.5 662.784,112C662.078,121.075 661.501,133.225 661.502,139C661.504,144.775 661.906,155.037 662.397,161.805C662.926,169.097 662.923,174.477 662.389,175.011C661.893,175.507 657.788,176.221 653.267,176.598ZM46.156,160.668C48.969,160.335 54.13,158.724 57.626,157.088C61.284,155.376 66.129,151.966 69.042,149.054C72.194,145.901 75.382,141.261 77.497,136.747C79.365,132.761 81.592,126.031 82.447,121.792C83.301,117.553 84,110.665 84,106.485C84,102.305 83.498,96.89 82.883,94.451C82.226,91.841 80.136,88.164 77.802,85.513C74.754,82.05 72.572,80.641 68.365,79.418C64.604,78.324 61.269,78.038 57.697,78.501C54.838,78.872 50.169,79.834 47.321,80.638C44.472,81.443 40.985,83.011 39.571,84.123C37,86.145 37,86.145 37,106.412C37,117.559 37.678,133.839 38.508,142.589C39.337,151.34 40.246,159.124 40.529,159.887C40.917,160.936 42.289,161.126 46.156,160.668ZM361.196,160.573C363.779,160.317 367.154,159.445 368.696,158.636C370.238,157.827 373.164,155.44 375.198,153.332C377.232,151.225 380.06,146.951 381.482,143.835C382.905,140.719 384.721,135.094 385.517,131.335C386.314,127.576 386.973,121.673 386.983,118.219C386.995,113.882 386.586,111.778 385.662,111.424C384.925,111.141 381.22,111.406 377.428,112.011C373.636,112.617 368.647,113.947 366.341,114.967C364.035,115.987 360.151,118.663 357.71,120.913C355.005,123.407 352.17,127.446 350.453,131.253C348.266,136.101 347.62,139.067 347.568,144.5C347.529,148.457 348.118,152.965 348.921,154.87C349.769,156.881 351.584,158.805 353.421,159.64C355.294,160.491 358.34,160.856 361.196,160.573ZM764.196,160.573C766.779,160.317 770.219,159.421 771.84,158.583C773.461,157.744 776.208,155.638 777.943,153.903C779.679,152.167 782.37,148.217 783.924,145.124C785.478,142.031 787.48,136.261 788.374,132.303C789.268,128.344 790,122.142 790,118.521C790,113.944 789.592,111.781 788.662,111.424C787.925,111.141 784.213,111.396 780.412,111.99C776.61,112.583 771.178,114.192 768.339,115.564C765.501,116.937 761.512,119.905 759.475,122.16C757.437,124.415 754.638,128.733 753.255,131.755C751.383,135.844 750.709,139.071 750.62,144.375C750.55,148.553 751.088,152.894 751.921,154.87C752.769,156.881 754.584,158.805 756.421,159.64C758.294,160.491 761.34,160.856 764.196,160.573ZM848.156,160.668C850.969,160.335 856.13,158.724 859.626,157.088C863.284,155.376 868.129,151.966 871.042,149.054C874.194,145.901 877.382,141.261 879.497,136.747C881.365,132.761 883.592,126.031 884.447,121.792C885.301,117.553 886,110.665 886,106.485C886,102.305 885.497,96.89 884.883,94.451C884.226,91.841 882.136,88.164 879.802,85.513C876.754,82.05 874.572,80.641 870.365,79.418C866.604,78.324 863.269,78.038 859.697,78.501C856.838,78.872 852.169,79.834 849.321,80.638C846.472,81.443 842.985,83.011 841.571,84.123C839,86.145 839,86.145 839,106.412C839,117.559 839.678,133.839 840.508,142.589C841.337,151.34 842.246,159.124 842.529,159.887C842.917,160.936 844.289,161.126 848.156,160.668ZM278.254,115.492C281.139,115.11 285.647,114.403 288.271,113.921C290.896,113.438 295.712,112.352 298.973,111.507C302.235,110.662 306.95,109.093 309.452,108.021C313.9,106.114 314,105.97 314,101.511C314,99.002 313.106,94.407 312.014,91.298C310.921,88.19 308.834,83.924 307.375,81.819C305.916,79.714 303.269,77.093 301.493,75.996C299.548,74.794 296.521,74.001 293.882,74.004C291.298,74.006 288.183,74.81 286.29,75.965C284.525,77.041 281.901,79.704 280.46,81.881C279.019,84.059 277.024,88.464 276.026,91.67C275.028,94.877 273.678,101.02 273.027,105.322C272.375,109.624 272.104,113.829 272.425,114.665C272.894,115.888 274.036,116.05 278.254,115.492Z"/>
                </g>
            </g>
        </g>
    </g>
    <defs>
        <radialGradient id="_Radial2" cx="0" cy="0" r="1" gradientUnits="userSpaceOnUse" gradientTransform="matrix(86.1131,0,0,-86.1131,89.187,122.938)"><stop offset="0" style="stop-color:rgb(255,161,0);stop-opacity:1"/><stop offset="1" style="stop-color:rgb(255,90,0);stop-opacity:1"/></radialGradient>
    </defs>
</svg>
