<?xml version="1.0" encoding="UTF-8" standalone="no"?>
<!DOCTYPE svg PUBLIC "-//W3C//DTD SVG 1.1//EN" "http://www.w3.org/Graphics/SVG/1.1/DTD/svg11.dtd">
<svg width="100%" height="100%" viewBox="0 0 600 136" version="1.1" xmlns="http://www.w3.org/2000/svg" xmlns:xlink="http://www.w3.org/1999/xlink" xml:space="preserve" xmlns:serif="http://www.serif.com/" style="fill-rule:evenodd;clip-rule:evenodd;stroke-linejoin:round;stroke-miterlimit:2;">
    <g transform="matrix(0.759634,0,0,-0.759634,0,135.501)">
        <clipPath id="_clip1">
            <path d="M3.074,89.19C3.074,41.629 41.63,3.075 89.187,3.075C136.749,3.075 175.3,41.629 175.3,89.19C175.3,136.748 136.749,175.302 89.187,175.302C41.63,175.302 3.074,136.748 3.074,89.19"/>
        </clipPath>
        <g clip-path="url(#_clip1)">
            <path d="M3.074,89.19C3.074,41.629 41.63,3.075 89.187,3.075C136.749,3.075 175.3,41.629 175.3,89.19C175.3,136.748 136.749,175.302 89.187,175.302C41.63,175.302 3.074,136.748 3.074,89.19" style="fill:url(#_Radial2);fill-rule:nonzero;"/>
        </g>
    </g>
    <g transform="matrix(0.759634,0,0,-0.759634,0,135.501)">
        <path d="M68.235,36.13L45.61,53.43C52.746,61.541 60.226,69.343 68.03,76.814C71.115,79.833 73.062,81.748 73.862,82.558C71.349,82.947 64.176,84.576 52.348,87.438C43.81,89.505 38.194,91.034 35.492,92.017L44.81,118.647C57.694,113.317 69.276,107.456 79.544,101.035C77.148,117.577 75.956,131.079 75.956,141.538L102.576,141.538C102.576,134.035 101.233,120.432 98.538,100.721C100.531,101.527 104.87,103.467 111.572,106.567C120.73,110.657 129.177,114.152 136.912,117.047L144.632,89.892C133.427,87.399 120.46,84.952 105.724,82.558L123.804,62.016C127.414,57.862 130.274,54.464 132.388,51.836L109.23,36.66L89.12,70.566C83.044,59.79 76.09,48.308 68.234,36.13" style="fill:white;fill-rule:nonzero;"/>
    </g>
    <g transform="matrix(0.759634,0,0,-0.759634,0,135.501)">
        <path d="M218.646,122.257C218.388,117.02 218.125,104.729 218.125,103.157C217.865,96.093 217.865,67.065 218.125,48.757C218.388,38.554 220.741,31.489 230.943,25.737C230.943,25.737 225.186,17.364 223.093,14.227C207.923,22.605 204.262,35.157 204.262,49.804L204.262,91.127C204.262,103.423 204.002,113.363 204.262,121.468C201.121,122.516 195.632,122.778 191.186,123.042C191.446,126.44 191.446,131.147 191.968,134.547C195.633,134.547 203.475,135.071 205.831,135.594C205.308,137.952 205.831,141.084 205.831,142.132C206.089,150.506 206.356,154.424 206.875,160.443C206.875,160.443 218.645,164.364 221,165.929C220.478,159.655 219.953,146.319 219.432,134.287C226.496,134.547 235.13,135.594 239.31,135.594C239.31,135.594 239.05,129.324 239.572,123.042C236.436,123.56 222.834,122.257 218.646,122.257M279.855,127.75C271.217,127.75 259.19,115.198 259.974,91.911C264.156,91.389 273.838,91.651 278.278,92.435C285.608,93.218 293.718,94.261 296.852,94.793C294.762,113.884 291.882,127.749 279.855,127.749M284.297,21.809C275.144,21.809 262.85,28.62 256.313,37.766C248.988,48.233 245.063,62.619 245.063,82.759C245.063,124.605 261.801,140.567 282.99,140.567C303.13,140.567 310.713,113.097 311.763,83.017C291.097,81.189 265.465,79.099 259.449,79.617C260.237,65.491 261.543,55.817 265.723,47.712C270.172,39.862 279.067,34.633 285.08,34.633C291.097,34.633 304.96,37.766 309.407,40.647C310.194,38.297 312.287,34.633 314.116,32.019C311.502,27.827 292.144,21.809 284.296,21.809M343.928,75.955C337.133,72.296 329.028,66.013 329.028,56.861C329.028,38.554 333.47,32.279 341.581,32.279C349.424,32.279 360.933,42.742 367.735,49.804C368.519,52.156 368.519,80.929 368.519,86.159C365.121,85.117 349.682,79.099 343.929,75.955M370.349,10.833C370.349,14.486 368.519,29.405 367.993,34.633C362.24,28.62 350.206,17.631 336.868,17.631C328.766,17.631 315.684,28.353 315.684,53.723C315.684,63.399 320.915,78.051 331.378,83.806C348.9,93.218 362.24,96.36 368.519,98.976C368.779,112.05 367.735,120.428 360.672,123.822C352.302,127.749 344.716,129.058 337.652,129.058C337.652,129.058 338.439,140.829 338.439,143.178C347.335,142.132 366.166,138.73 372.704,134.288C379.508,130.103 381.598,117.28 381.598,111.788C381.598,109.959 381.855,69.943 381.855,42.995C381.855,31.489 383.169,17.363 383.69,14.226C379.241,13.181 374.008,11.876 370.348,10.833M500.6,24.17C499.032,23.912 491.704,22.858 486.22,22.342C486.74,30.188 487,42.482 487,47.712L487,106.564C487,118.066 487.264,124.339 480.982,124.339C473.404,124.339 457.968,111.005 454.567,107.344C455.089,99.498 455.089,27.307 455.35,23.644L440.18,23.644C440.97,25.475 441.489,40.382 441.489,41.694C441.489,48.757 440.441,102.637 440.441,109.435C440.441,124.873 439.133,126.44 429.721,126.44C422.658,126.44 412.454,121.73 408.27,119.374C408.27,113.364 407.748,35.679 407.748,18.94C403.562,20.242 396.502,21.548 394.407,21.548C394.672,28.62 394.931,60.524 394.931,62.878L395.191,142.916C399.111,142.132 404.085,140.829 406.958,141.084C406.958,141.084 407.748,134.547 408.533,131.672C417.951,136.382 429.722,139.778 438.613,139.778C443.841,139.778 449.861,137.424 452.208,129.323C452.738,127.749 453.518,123.56 453.518,120.944C461.632,128.529 474.973,138.209 484.122,138.209C497.201,138.209 500.862,128.01 500.862,109.696L500.6,24.17ZM523.047,18.183C523.388,25.622 523.388,30.042 522.862,37.119C539.132,37.119 548.508,42.956 548.508,50.738C548.508,59.938 540.912,70.384 535.425,77.991C527.639,88.071 520.201,99.393 520.201,111.608C520.201,133.368 535.607,141.684 566.566,141.684C566.216,136.202 565.682,130.539 566.389,124.52C549.937,124.174 539.839,121.155 539.839,113.553C539.839,106.122 541.263,104.353 552.056,88.251C559.482,77.636 567.622,65.424 567.622,53.213C567.622,31.275 556.829,21.72 523.047,18.183M626.714,24.028C623.894,34.283 605.141,77.458 598.771,91.613C598.408,86.658 598.591,77.991 598.591,71.977C598.408,53.926 598.771,22.784 598.771,22.784C593.458,24.028 585.666,24.907 578.243,25.439C578.944,34.461 580.888,63.483 581.066,86.307C581.246,106.122 580.191,130.71 580.01,139.739C585.146,139.739 592.4,140.268 597.174,141.161C598.058,134.961 616.807,91.255 625.66,73.39C625.66,78.168 626.194,105.238 625.48,120.63C625.301,126.47 624.77,133.197 623.894,137.975C631.139,138.328 636.985,139.03 643.535,140.448L643.535,22.784C636.816,23.313 632.202,23.494 626.715,24.028M684.925,107.54C683.692,98.515 678.909,67.727 678.03,62.42C681.22,62.95 690.063,62.768 693.781,63.306C692.364,70.033 686.876,99.038 684.925,107.54M702.984,18.714C702.273,25.264 698.906,36.411 698.02,43.138C697.839,44.368 697.661,45.612 697.661,46.675C690.23,46.329 682.799,45.975 675.368,45.612C674.497,40.651 671.131,24.377 670.418,18.892C664.41,21.542 657.154,24.207 652.02,25.622C653.785,32.869 665.994,85.242 671.663,122.049C672.538,127.884 674.135,136.382 674.135,139.387C678.385,139.919 689.349,140.622 693.248,141.334C694.654,134.961 720.137,31.274 722.087,23.313C717.305,22.433 708.288,20.309 702.984,18.713M749.158,123.642C749.328,118.682 749.678,110.725 749.858,104.172C750.043,99.038 750.394,90.195 750.394,85.242C761.898,85.779 770.22,95.852 770.22,106.302C770.22,119.396 762.785,123.642 749.158,123.642M750.223,67.902C750.223,54.626 750.393,37.119 751.448,27.031C743.668,24.206 731.108,21.72 731.108,21.72C731.108,36.052 731.643,66.848 731.108,97.099C730.75,112.317 729.516,132.483 728.106,138.147C734.646,139.919 740.486,140.447 745.619,140.622C769.687,141.512 789.854,133.551 789.854,105.238C789.854,89.842 772.342,69.668 750.223,67.903" style="fill-rule:nonzero;"/>
    </g>
    <defs>
        <radialGradient id="_Radial2" cx="0" cy="0" r="1" gradientUnits="userSpaceOnUse" gradientTransform="matrix(86.1131,0,0,-86.1131,89.187,122.938)"><stop offset="0" style="stop-color:rgb(255,161,0);stop-opacity:1"/><stop offset="1" style="stop-color:rgb(255,90,0);stop-opacity:1"/></radialGradient>
    </defs>
</svg>
